<?xml version="1.0" standalone="no"?>
<!DOCTYPE svg PUBLIC "-//W3C//DTD SVG 20010904//EN"
 "http://www.w3.org/TR/2001/REC-SVG-20010904/DTD/svg10.dtd">
<svg version="1.0" xmlns="http://www.w3.org/2000/svg"
 width="1000.000000pt" height="1000.000000pt" viewBox="0 0 1000.000000 1000.000000"
 preserveAspectRatio="xMidYMid meet">
<metadata>
Created by potrace 1.11, written by Peter Selinger 2001-2013
</metadata>
<g transform="translate(0.000000,1000.000000) scale(0.100000,-0.100000)"
fill="#000000" stroke="none">
<path d="M4600 9959 c-629 -54 -1216 -216 -1775 -489 -376 -184 -683 -383
-1015 -658 -148 -123 -489 -464 -612 -612 -674 -813 -1059 -1754 -1148 -2805
-13 -155 -13 -625 0 -780 55 -643 214 -1224 490 -1790 184 -376 383 -683 658
-1015 123 -148 464 -489 612 -612 812 -673 1756 -1061 2795 -1148 155 -13 645
-13 800 0 1078 91 2075 514 2885 1226 127 111 408 397 506 514 495 591 840
1259 1022 1975 110 433 152 774 152 1240 0 299 -8 431 -41 670 -132 974 -543
1873 -1195 2615 -111 127 -397 408 -514 506 -331 277 -650 486 -1015 664 -586
287 -1158 445 -1810 500 -139 11 -656 11 -795 -1z m2036 -2080 c681 -68 1238
-586 1360 -1264 25 -138 24 -395 0 -525 -58 -301 -217 -612 -419 -817 l-61
-62 28 -38 c195 -266 286 -538 286 -858 0 -242 -44 -426 -155 -650 -224 -452
-661 -754 -1165 -805 -84 -8 -577 -10 -1805 -8 l-1690 4 -100 23 c-197 44
-368 115 -512 211 -335 225 -557 550 -640 940 -28 134 -26 440 5 579 65 288
186 507 401 722 300 300 624 432 1056 432 181 -1 269 -14 346 -54 23 -11 42
-19 44 -17 1 2 21 58 44 126 116 348 332 624 636 808 175 107 384 174 606 194
68 6 124 12 125 13 0 1 9 25 19 52 62 174 191 378 330 524 334 350 784 518
1261 470z"/>
<path d="M6395 7624 c-461 -50 -840 -312 -1034 -713 -23 -47 -41 -91 -41 -98
0 -7 19 -17 43 -23 272 -69 492 -190 691 -380 175 -168 296 -352 371 -562 l27
-77 42 -5 c22 -3 70 -8 105 -11 202 -19 462 -130 653 -277 118 -91 102 -88
159 -32 120 117 247 320 304 488 86 253 88 567 5 816 -35 107 -115 261 -181
351 -193 262 -480 445 -793 504 -83 16 -281 26 -351 19z"/>
<path d="M4935 6564 c-363 -38 -681 -229 -880 -529 -98 -147 -160 -304 -193
-489 -23 -128 -42 -155 -115 -163 -36 -4 -53 0 -89 21 -109 63 -266 97 -458
97 -267 0 -480 -65 -703 -214 -563 -377 -694 -1149 -287 -1697 175 -234 435
-396 739 -457 80 -17 207 -18 1816 -18 l1730 0 95 21 c323 73 581 248 756 510
134 202 197 414 196 669 0 495 -294 924 -757 1108 -108 43 -252 73 -394 82
-58 3 -116 13 -132 20 -36 19 -69 62 -69 91 0 39 -60 213 -100 294 -165 326
-492 569 -853 634 -90 17 -239 26 -302 20z"/>
</g>
</svg>
