<?xml version="1.0" encoding="utf-8"?>
<!-- Generator: Adobe Illustrator 21.1.0, SVG Export Plug-In . SVG Version: 6.00 Build 0)  -->
<svg version="1.1" id="Layer_1" xmlns="http://www.w3.org/2000/svg" xmlns:xlink="http://www.w3.org/1999/xlink" x="0px" y="0px"
	 viewBox="0 0 32 32" style="enable-background:new 0 0 32 32;" xml:space="preserve">
<style type="text/css">
	.st0{fill:#FFFFFF;}
</style>
<path class="st0" d="M9.6,26h12c3,0,5.5-2.5,5.5-5.5c0-1.3-0.4-2.4-1.2-3.4c1.2-1.1,1.9-2.7,1.9-4.3C27.8,9.6,25.2,7,22,7
	c-2.5,0-4.7,1.6-5.5,4c-2.6,0-4.7,1.8-5.3,4.3c-0.5-0.3-1-0.3-1.6-0.3c-3,0-5.5,2.5-5.5,5.5C4.1,23.5,6.6,26,9.6,26z M22.1,8
	c2.7,0,4.8,2.2,4.8,4.8c0,1.4-0.6,2.7-1.6,3.6c-0.9-0.8-2.1-1.4-3.4-1.4c-0.6-2-2.3-3.5-4.3-3.9C18.3,9.2,20.1,8,22.1,8z M9.6,16
	c0.6,0,1.3,0.1,1.8,0.4c0.1,0.1,0.3,0.1,0.5,0c0.1-0.1,0.2-0.2,0.2-0.4c0.3-2.3,2.2-4,4.4-4c2.1,0,4,1.5,4.4,3.6
	c0,0.2,0.3,0.4,0.5,0.4h0.1c2.5,0,4.5,2,4.5,4.5S24,25,21.5,25h-12C7,25,5,23,5,20.5S7.1,16,9.6,16z"/>
</svg>
