<?xml version="1.0" encoding="utf-8"?>
<!-- Generator: Adobe Illustrator 21.1.0, SVG Export Plug-In . SVG Version: 6.00 Build 0)  -->
<svg version="1.1" id="Layer_1" xmlns="http://www.w3.org/2000/svg" xmlns:xlink="http://www.w3.org/1999/xlink" x="0px" y="0px"
	 viewBox="0 0 32 32" style="enable-background:new 0 0 32 32;" xml:space="preserve">
<style type="text/css">
	.st0{fill:#231F20;}
</style>
<path class="st0" d="M22.3,7.4c-0.7-2.3-2.8-4-5.3-4c-2.6,0-4.8,1.8-5.3,4.3c-0.5-0.2-1.1-0.3-1.7-0.3c-3,0-5.5,2.7-5.5,5.8
	C4.5,16.3,7,19,10,19h12c3,0,5.5-2.7,5.5-5.8C27.5,10.2,25.1,7.6,22.3,7.4z M22,18H10c-2.4,0-4.5-2.2-4.5-4.8c0-2.6,2.1-4.8,4.5-4.8
	c0.6,0,1.3,0.1,1.8,0.4c0.1,0.1,0.3,0.1,0.5,0c0.1-0.1,0.2-0.2,0.2-0.4c0.3-2.3,2.2-4,4.4-4c2.1,0,4,1.5,4.4,3.6
	c0,0.2,0.3,0.4,0.5,0.4c0,0,0.1,0,0.1,0c2.4,0,4.5,2.2,4.5,4.8C26.5,15.8,24.4,18,22,18z"/>
<path class="st0" d="M11.5,28.1c0.1,0.1,0.2,0.1,0.3,0.1c0.1,0,0.3-0.1,0.4-0.2l3.2-3.3c0.1-0.1,0.2-0.4,0.1-0.5
	C15.4,24.1,15.2,24,15,24h-1.2l2-1.9c0.2-0.2,0.2-0.5,0-0.7c-0.2-0.2-0.5-0.2-0.7,0l-2.9,2.7c-0.2,0.1-0.2,0.4-0.1,0.5
	c0.1,0.2,0.3,0.3,0.5,0.3h1.3l-2.3,2.4C11.3,27.6,11.3,27.9,11.5,28.1z"/>
<path class="st0" d="M18.6,24.3l2.5-2.5c0.2-0.2,0.2-0.5,0-0.7c-0.2-0.2-0.5-0.2-0.7,0l-2.5,2.5c-0.2,0.2-0.2,0.5,0,0.7
	c0.1,0.1,0.2,0.1,0.4,0.1C18.4,24.4,18.5,24.4,18.6,24.3z"/>
<path class="st0" d="M8.6,24.3l2.5-2.5c0.2-0.2,0.2-0.5,0-0.7c-0.2-0.2-0.5-0.2-0.7,0l-2.5,2.5c-0.2,0.2-0.2,0.5,0,0.7
	c0.1,0.1,0.2,0.1,0.4,0.1C8.4,24.4,8.5,24.4,8.6,24.3z"/>
</svg>
