<?xml version="1.0" encoding="utf-8"?>
<!-- Generator: Adobe Illustrator 21.1.0, SVG Export Plug-In . SVG Version: 6.00 Build 0)  -->
<svg version="1.1" id="Layer_1" xmlns="http://www.w3.org/2000/svg" xmlns:xlink="http://www.w3.org/1999/xlink" x="0px" y="0px"
	 viewBox="0 0 32 32" style="enable-background:new 0 0 32 32;" xml:space="preserve">
<style type="text/css">
	.st0{fill:#231F20;}
</style>
<path class="st0" d="M16.2,23.8c4.4,0,8-3.6,8-8s-3.6-8-8-8s-8,3.6-8,8S11.8,23.8,16.2,23.8z M16.2,8.8c3.9,0,7,3.1,7,7s-3.1,7-7,7
	s-7-3.1-7-7S12.3,8.8,16.2,8.8z"/>
<path class="st0" d="M15.5,5.5C15.8,5.5,16,5.3,16,5V1c0-0.3-0.2-0.5-0.5-0.5S15,0.7,15,1v4C15,5.3,15.2,5.5,15.5,5.5z"/>
<path class="st0" d="M16,31v-4c0-0.3-0.2-0.5-0.5-0.5S15,26.7,15,27v4c0,0.3,0.2,0.5,0.5,0.5S16,31.3,16,31z"/>
<path class="st0" d="M5.5,16.5C5.5,16.2,5.3,16,5,16H1c-0.3,0-0.5,0.2-0.5,0.5S0.7,17,1,17h4C5.3,17,5.5,16.8,5.5,16.5z"/>
<path class="st0" d="M31,16h-4c-0.3,0-0.5,0.2-0.5,0.5S26.7,17,27,17h4c0.3,0,0.5-0.2,0.5-0.5S31.3,16,31,16z"/>
<path class="st0" d="M6.1,26.8L8.9,24c0.2-0.2,0.2-0.5,0-0.7c-0.2-0.2-0.5-0.2-0.7,0l-2.8,2.8c-0.2,0.2-0.2,0.5,0,0.7
	c0.1,0.1,0.2,0.1,0.4,0.1C5.9,26.9,6,26.9,6.1,26.8z"/>
<path class="st0" d="M24.1,8.6c0.1,0,0.3,0,0.4-0.1l2.8-2.8c0.2-0.2,0.2-0.5,0-0.7c-0.2-0.2-0.5-0.2-0.7,0l-2.8,2.8
	c-0.2,0.2-0.2,0.5,0,0.7C23.9,8.5,24,8.6,24.1,8.6z"/>
<path class="st0" d="M24.5,23.3c-0.2-0.2-0.5-0.2-0.7,0c-0.2,0.2-0.2,0.5,0,0.7l2.8,2.8c0.1,0.1,0.2,0.1,0.4,0.1
	c0.1,0,0.3,0,0.4-0.1c0.2-0.2,0.2-0.5,0-0.7L24.5,23.3z"/>
<path class="st0" d="M8.2,8.4c0.1,0.1,0.2,0.1,0.4,0.1c0.1,0,0.3,0,0.4-0.1c0.2-0.2,0.2-0.5,0-0.7L6.1,4.9c-0.2-0.2-0.5-0.2-0.7,0
	c-0.2,0.2-0.2,0.5,0,0.7L8.2,8.4z"/>
</svg>
